<?xml version="1.0" encoding="utf-8"?><svg xmlns="http://www.w3.org/2000/svg" xmlns:xlink="http://www.w3.org/1999/xlink" style="margin: auto; background: rgba(0, 0, 0, 0) none repeat scroll 0% 0%; display: block; shape-rendering: auto;" width="174px" height="174px" viewBox="0 0 100 100" preserveAspectRatio="xMidYMid"><rect transform="rotate(0 50 50)" x="45" y="11" rx="5" ry="5" width="10" height="10" fill="#ffffff"><animate attributeName="opacity" values="1;0" keyTimes="0;1" dur="1s" begin="-0.923" repeatCount="indefinite"></animate></rect><rect transform="rotate(27.692 50 50)" x="45" y="11" rx="5" ry="5" width="10" height="10" fill="#ffffff"><animate attributeName="opacity" values="1;0" keyTimes="0;1" dur="1s" begin="-0.846" repeatCount="indefinite"></animate></rect><rect transform="rotate(55.384 50 50)" x="45" y="11" rx="5" ry="5" width="10" height="10" fill="#ffffff"><animate attributeName="opacity" values="1;0" keyTimes="0;1" dur="1s" begin="-0.769" repeatCount="indefinite"></animate></rect><rect transform="rotate(83.076 50 50)" x="45" y="11" rx="5" ry="5" width="10" height="10" fill="#ffffff"><animate attributeName="opacity" values="1;0" keyTimes="0;1" dur="1s" begin="-0.692" repeatCount="indefinite"></animate></rect><rect transform="rotate(110.769 50 50)" x="45" y="11" rx="5" ry="5" width="10" height="10" fill="#ffffff"><animate attributeName="opacity" values="1;0" keyTimes="0;1" dur="1s" begin="-0.615" repeatCount="indefinite"></animate></rect><rect transform="rotate(138.461 50 50)" x="45" y="11" rx="5" ry="5" width="10" height="10" fill="#ffffff"><animate attributeName="opacity" values="1;0" keyTimes="0;1" dur="1s" begin="-0.538" repeatCount="indefinite"></animate></rect><rect transform="rotate(166.153 50 50)" x="45" y="11" rx="5" ry="5" width="10" height="10" fill="#ffffff"><animate attributeName="opacity" values="1;0" keyTimes="0;1" dur="1s" begin="-0.461" repeatCount="indefinite"></animate></rect><rect transform="rotate(193.846 50 50)" x="45" y="11" rx="5" ry="5" width="10" height="10" fill="#ffffff"><animate attributeName="opacity" values="1;0" keyTimes="0;1" dur="1s" begin="-0.384" repeatCount="indefinite"></animate></rect><rect transform="rotate(221.538 50 50)" x="45" y="11" rx="5" ry="5" width="10" height="10" fill="#ffffff"><animate attributeName="opacity" values="1;0" keyTimes="0;1" dur="1s" begin="-0.307" repeatCount="indefinite"></animate></rect><rect transform="rotate(249.230 50 50)" x="45" y="11" rx="5" ry="5" width="10" height="10" fill="#ffffff"><animate attributeName="opacity" values="1;0" keyTimes="0;1" dur="1s" begin="-0.230" repeatCount="indefinite"></animate></rect><rect transform="rotate(276.923 50 50)" x="45" y="11" rx="5" ry="5" width="10" height="10" fill="#ffffff"><animate attributeName="opacity" values="1;0" keyTimes="0;1" dur="1s" begin="-0.153" repeatCount="indefinite"></animate></rect><rect transform="rotate(304.615 50 50)" x="45" y="11" rx="5" ry="5" width="10" height="10" fill="#ffffff"><animate attributeName="opacity" values="1;0" keyTimes="0;1" dur="1s" begin="-0.076" repeatCount="indefinite"></animate></rect><rect transform="rotate(332.307 50 50)" x="45" y="11" rx="5" ry="5" width="10" height="10" fill="#ffffff"><animate attributeName="opacity" values="1;0" keyTimes="0;1" dur="1s" begin="0s" repeatCount="indefinite"></animate></rect></svg>